<?xml version="1.0" encoding="UTF-8"?>
<svg xmlns="http://www.w3.org/2000/svg" version="1.1" width="300" height="300" viewBox="0 0 300 300"><rect x="0" y="0" width="300" height="300" fill="#ffffff"/><g transform="scale(14.286)"><g transform="translate(0,0)"><path fill-rule="evenodd" d="M8 0L8 4L9 4L9 5L8 5L8 7L9 7L9 5L10 5L10 7L11 7L11 8L12 8L12 10L11 10L11 9L9 9L9 11L8 11L8 9L7 9L7 8L4 8L4 10L1 10L1 9L2 9L2 8L0 8L0 11L2 11L2 13L7 13L7 12L6 12L6 11L8 11L8 14L9 14L9 15L8 15L8 17L9 17L9 19L8 19L8 21L11 21L11 20L10 20L10 19L12 19L12 20L13 20L13 21L15 21L15 20L17 20L17 18L18 18L18 17L19 17L19 18L21 18L21 17L20 17L20 15L21 15L21 14L20 14L20 15L19 15L19 14L18 14L18 13L20 13L20 11L21 11L21 10L20 10L20 9L21 9L21 8L17 8L17 10L15 10L15 9L16 9L16 8L15 8L15 9L13 9L13 8L12 8L12 7L13 7L13 2L12 2L12 1L13 1L13 0L12 0L12 1L11 1L11 2L10 2L10 1L9 1L9 0ZM9 3L9 4L10 4L10 3ZM11 3L11 7L12 7L12 3ZM6 9L6 10L5 10L5 11L6 11L6 10L7 10L7 9ZM13 10L13 11L12 11L12 12L11 12L11 11L9 11L9 12L11 12L11 13L12 13L12 12L13 12L13 11L14 11L14 12L16 12L16 13L17 13L17 12L18 12L18 11L15 11L15 10ZM19 10L19 11L20 11L20 10ZM3 11L3 12L4 12L4 11ZM9 13L9 14L10 14L10 13ZM12 14L12 16L11 16L11 15L9 15L9 16L11 16L11 17L10 17L10 18L12 18L12 19L16 19L16 18L17 18L17 17L18 17L18 14L17 14L17 15L15 15L15 14ZM14 15L14 16L15 16L15 17L14 17L14 18L15 18L15 17L16 17L16 16L15 16L15 15ZM12 16L12 18L13 18L13 16ZM20 19L20 20L18 20L18 21L21 21L21 19ZM0 0L0 7L7 7L7 0ZM1 1L1 6L6 6L6 1ZM2 2L2 5L5 5L5 2ZM14 0L14 7L21 7L21 0ZM15 1L15 6L20 6L20 1ZM16 2L16 5L19 5L19 2ZM0 14L0 21L7 21L7 14ZM1 15L1 20L6 20L6 15ZM2 16L2 19L5 19L5 16Z" fill="#000000"/></g></g></svg>
