<?xml version="1.0" encoding="UTF-8"?>
<svg xmlns="http://www.w3.org/2000/svg" version="1.1" width="300" height="300" viewBox="0 0 300 300"><rect x="0" y="0" width="300" height="300" fill="#ffffff"/><g transform="scale(14.286)"><g transform="translate(0,0)"><path fill-rule="evenodd" d="M8 0L8 1L10 1L10 0ZM12 0L12 1L13 1L13 0ZM8 2L8 5L9 5L9 2ZM10 2L10 3L11 3L11 5L10 5L10 7L11 7L11 6L12 6L12 7L13 7L13 3L11 3L11 2ZM8 6L8 7L9 7L9 6ZM0 8L0 9L3 9L3 10L0 10L0 11L1 11L1 12L4 12L4 10L5 10L5 9L4 9L4 8ZM6 8L6 9L7 9L7 10L6 10L6 11L7 11L7 12L5 12L5 13L8 13L8 14L9 14L9 15L10 15L10 16L11 16L11 17L8 17L8 21L9 21L9 18L10 18L10 20L11 20L11 21L16 21L16 20L15 20L15 19L16 19L16 18L18 18L18 17L19 17L19 18L20 18L20 16L18 16L18 15L17 15L17 13L18 13L18 14L19 14L19 15L21 15L21 14L20 14L20 11L21 11L21 10L20 10L20 9L21 9L21 8L20 8L20 9L19 9L19 8L16 8L16 12L17 12L17 13L14 13L14 14L11 14L11 15L10 15L10 14L9 14L9 13L10 13L10 12L9 12L9 13L8 13L8 11L11 11L11 10L13 10L13 11L14 11L14 12L15 12L15 11L14 11L14 10L13 10L13 9L14 9L14 8L11 8L11 9L9 9L9 8L8 8L8 9L7 9L7 8ZM8 9L8 10L9 10L9 9ZM17 9L17 12L18 12L18 13L19 13L19 11L20 11L20 10L19 10L19 9ZM18 10L18 11L19 11L19 10ZM12 12L12 13L13 13L13 12ZM14 14L14 15L11 15L11 16L12 16L12 17L11 17L11 20L12 20L12 19L15 19L15 17L14 17L14 16L16 16L16 17L17 17L17 15L16 15L16 14ZM13 17L13 18L14 18L14 17ZM17 19L17 21L18 21L18 20L19 20L19 21L20 21L20 20L19 20L19 19ZM0 0L0 7L7 7L7 0ZM1 1L1 6L6 6L6 1ZM2 2L2 5L5 5L5 2ZM14 0L14 7L21 7L21 0ZM15 1L15 6L20 6L20 1ZM16 2L16 5L19 5L19 2ZM0 14L0 21L7 21L7 14ZM1 15L1 20L6 20L6 15ZM2 16L2 19L5 19L5 16Z" fill="#000000"/></g></g></svg>
