<?xml version="1.0" encoding="UTF-8"?>
<svg xmlns="http://www.w3.org/2000/svg" version="1.1" width="300" height="300" viewBox="0 0 300 300"><rect x="0" y="0" width="300" height="300" fill="#ffffff"/><g transform="scale(14.286)"><g transform="translate(0,0)"><path fill-rule="evenodd" d="M8 0L8 2L9 2L9 4L8 4L8 9L7 9L7 8L5 8L5 9L3 9L3 8L0 8L0 9L2 9L2 10L0 10L0 13L2 13L2 12L4 12L4 13L5 13L5 12L4 12L4 11L5 11L5 9L7 9L7 10L6 10L6 11L7 11L7 10L8 10L8 11L10 11L10 12L6 12L6 13L8 13L8 14L11 14L11 15L12 15L12 13L15 13L15 14L13 14L13 15L15 15L15 16L10 16L10 15L8 15L8 16L10 16L10 18L11 18L11 19L9 19L9 18L8 18L8 21L9 21L9 20L10 20L10 21L12 21L12 19L13 19L13 20L14 20L14 21L15 21L15 20L14 20L14 19L18 19L18 21L21 21L21 18L19 18L19 19L18 19L18 16L19 16L19 15L20 15L20 14L21 14L21 12L20 12L20 13L17 13L17 12L16 12L16 13L15 13L15 11L16 11L16 10L17 10L17 8L13 8L13 9L12 9L12 7L13 7L13 5L12 5L12 3L13 3L13 2L12 2L12 1L13 1L13 0ZM9 1L9 2L11 2L11 1ZM10 3L10 4L11 4L11 3ZM9 5L9 8L10 8L10 9L11 9L11 12L10 12L10 13L11 13L11 12L13 12L13 11L15 11L15 9L13 9L13 11L12 11L12 9L11 9L11 7L12 7L12 6L11 6L11 5ZM10 6L10 7L11 7L11 6ZM19 8L19 9L18 9L18 10L19 10L19 11L21 11L21 10L20 10L20 9L21 9L21 8ZM3 10L3 11L4 11L4 10ZM1 11L1 12L2 12L2 11ZM16 15L16 16L15 16L15 17L11 17L11 18L15 18L15 17L16 17L16 18L17 18L17 17L16 17L16 16L17 16L17 15ZM19 19L19 20L20 20L20 19ZM0 0L0 7L7 7L7 0ZM1 1L1 6L6 6L6 1ZM2 2L2 5L5 5L5 2ZM14 0L14 7L21 7L21 0ZM15 1L15 6L20 6L20 1ZM16 2L16 5L19 5L19 2ZM0 14L0 21L7 21L7 14ZM1 15L1 20L6 20L6 15ZM2 16L2 19L5 19L5 16Z" fill="#000000"/></g></g></svg>
