<?xml version="1.0" encoding="UTF-8"?>
<svg xmlns="http://www.w3.org/2000/svg" version="1.1" width="300" height="300" viewBox="0 0 300 300"><rect x="0" y="0" width="300" height="300" fill="#ffffff"/><g transform="scale(14.286)"><g transform="translate(0,0)"><path fill-rule="evenodd" d="M8 0L8 1L10 1L10 0ZM12 0L12 1L13 1L13 0ZM8 2L8 5L9 5L9 2ZM10 2L10 3L11 3L11 5L10 5L10 7L11 7L11 6L12 6L12 9L14 9L14 8L13 8L13 3L11 3L11 2ZM8 6L8 7L9 7L9 6ZM0 8L0 9L1 9L1 10L2 10L2 11L3 11L3 12L2 12L2 13L4 13L4 12L6 12L6 13L7 13L7 12L9 12L9 11L10 11L10 10L11 10L11 9L9 9L9 8L8 8L8 9L9 9L9 11L8 11L8 10L4 10L4 8ZM6 8L6 9L7 9L7 8ZM16 8L16 9L15 9L15 10L13 10L13 12L12 12L12 13L13 13L13 12L14 12L14 14L11 14L11 13L10 13L10 14L9 14L9 13L8 13L8 14L9 14L9 15L10 15L10 16L11 16L11 17L8 17L8 21L10 21L10 20L11 20L11 19L9 19L9 18L11 18L11 17L12 17L12 16L11 16L11 15L14 15L14 14L15 14L15 15L16 15L16 13L18 13L18 14L19 14L19 15L21 15L21 14L20 14L20 11L21 11L21 10L20 10L20 9L21 9L21 8L20 8L20 9L19 9L19 8ZM2 9L2 10L3 10L3 9ZM16 9L16 10L15 10L15 11L14 11L14 12L15 12L15 13L16 13L16 12L15 12L15 11L16 11L16 10L17 10L17 12L18 12L18 13L19 13L19 11L20 11L20 10L19 10L19 9ZM18 10L18 11L19 11L19 10ZM6 11L6 12L7 12L7 11ZM10 14L10 15L11 15L11 14ZM17 15L17 17L15 17L15 16L14 16L14 17L13 17L13 18L12 18L12 19L13 19L13 20L12 20L12 21L13 21L13 20L15 20L15 21L16 21L16 20L15 20L15 19L16 19L16 18L18 18L18 17L19 17L19 18L20 18L20 16L18 16L18 15ZM14 17L14 18L13 18L13 19L15 19L15 17ZM17 19L17 21L18 21L18 20L19 20L19 21L20 21L20 20L19 20L19 19ZM0 0L0 7L7 7L7 0ZM1 1L1 6L6 6L6 1ZM2 2L2 5L5 5L5 2ZM14 0L14 7L21 7L21 0ZM15 1L15 6L20 6L20 1ZM16 2L16 5L19 5L19 2ZM0 14L0 21L7 21L7 14ZM1 15L1 20L6 20L6 15ZM2 16L2 19L5 19L5 16Z" fill="#000000"/></g></g></svg>
